<svg version="1.1" xmlns="http://www.w3.org/2000/svg" xmlns:xlink="http://www.w3.org/1999/xlink" x="0px" y="0px"
	viewBox="0 0 50 50" style="enable-background:new 0 0 50 50;" xml:space="preserve">
	<defs>
		<linearGradient id="a" x1="0%" y1="0%" x2="100%" y2="100%">
			<stop offset="0%" style="stop-color:#c822ff" />
			<stop offset="100%" style="stop-color:#1a6dff" />
		</linearGradient>
		<linearGradient id="X8PQgv_hN2z14HAU6EeM8b" x1="53.975" x2="53.975" y1="20.11" y2="50"
			gradientUnits="userSpaceOnUse" spreadMethod="reflect">
			<stop offset="0" stop-color="#c90000" />
			<stop offset="1" stop-color="#ff9100" />
		</linearGradient>
	</defs>

	<g id="Layer_1">
		<path fill="url(#X8PQgv_hN2z14HAU6EeM8b)" d="M38,1H1v34h4v7.414L12.414,35H17v6h17.586L43,49.414V41h6V15H38V1z M11.586,33L7,37.586V33H3V13h7v7.184
		C8.839,20.598,8,21.698,8,23c0,1.654,1.346,3,3,3s3-1.346,3-3c0-1.302-0.839-2.402-2-2.816V11H3V3h33v5H23.816
		C23.402,6.839,22.302,6,21,6c-1.654,0-3,1.346-3,3s1.346,3,3,3c1.302,0,2.402-0.839,2.816-2H36v5H17v18H11.586z M12,23
		c0,0.552-0.448,1-1,1s-1-0.448-1-1s0.448-1,1-1S12,22.448,12,23z M22,9c0,0.552-0.448,1-1,1s-1-0.448-1-1s0.448-1,1-1
		S22,8.448,22,9z M47,17v16h-6.184c-0.414-1.161-1.514-2-2.816-2c-1.654,0-3,1.346-3,3s1.346,3,3,3c1.302,0,2.402-0.839,2.816-2H47
		v4h-6v5.586L35.414,39H19v-4V24h7v3.184c-1.161,0.414-2,1.514-2,2.816c0,1.654,1.346,3,3,3s3-1.346,3-3
		c0-1.302-0.839-2.402-2-2.816V22h-9v-5h13v8h6.184c0.414,1.161,1.514,2,2.816,2c1.654,0,3-1.346,3-3s-1.346-3-3-3
		c-1.302,0-2.402,0.839-2.816,2H34v-6h4H47z M39,34c0,0.552-0.448,1-1,1s-1-0.448-1-1s0.448-1,1-1S39,33.448,39,34z M28,30
		c0,0.552-0.448,1-1,1s-1-0.448-1-1s0.448-1,1-1S28,29.448,28,30z M40,24c0-0.552,0.448-1,1-1s1,0.448,1,1s-0.448,1-1,1
		S40,24.552,40,24z" id="id_103"></path>
	</g>

</svg>